<svg xmlns="http://www.w3.org/2000/svg" viewBox="0 0 256 256" xml:space="preserve"><path fill="#EFEFEF" d="M212.09 38.96v156.03l-10.05 10.05c-3.35 3.34-9.06 3.59-12.46.3-3.52-3.4-3.55-9.01-.11-12.46l11.05-11.05c3.07-3.07 3.25-8.07.24-11.2-3.09-3.26-8.23-3.28-11.36-.14l-23.35 23.33c-7.08 7.09-9.46 14.79-9.54 23.64H99.49c-.08-8.85-2.46-16.55-9.54-23.64L66.6 170.49c-3.13-3.14-8.27-3.12-11.36.14-3.01 3.13-2.83 8.13.24 11.2l11.05 11.05c3.44 3.45 3.41 9.06-.11 12.46-3.4 3.29-9.11 3.04-12.46-.3l-9.05-9.05V7.62h135.84l31.34 31.34z"/><path fill="#AFAFAF" d="M212.09 186.5v8.49l-10.05 10.05c-3.35 3.34-9.06 3.59-12.46.3-3.52-3.4-3.55-9.01-.11-12.46l11.05-11.05c3.07-3.07 3.25-8.07.24-11.2-3.09-3.26-8.23-3.28-11.36-.14l-23.35 23.33c-7.08 7.09-9.46 14.79-9.54 23.64h-6v-.05c.1-11.369 3.678-20.218 11.29-27.83l23.36-23.33c5.58-5.6 14.61-5.38 19.95.25 5.19 5.39 5.04 14.18-.35 19.57l-11.05 11.05a2.735 2.735 0 0 0 .04 3.9c1.01.99 2.99.83 4.05-.23l14.29-14.29zM105.49 217.41v.05h-6c-.08-8.85-2.46-16.55-9.54-23.64L66.6 170.49c-3.13-3.14-8.27-3.12-11.36.14-3.01 3.13-2.83 8.13.24 11.2l11.05 11.05c3.44 3.45 3.41 9.06-.11 12.46-3.4 3.29-9.11 3.04-12.46-.3l-9.05-9.05v-8.48L58.2 200.8c1.05 1.04 3.03 1.21 4.05.23a2.738 2.738 0 0 0 .03-3.91l-11.04-11.05c-5.39-5.39-5.54-14.18-.32-19.6 5.26-5.55 14.29-5.87 19.93-.22l23.34 23.33c7.61 7.61 11.2 16.46 11.3 27.83z"/><circle fill="#F0C020" cx="87.875" cy="55.04" r="31.75"/><path fill="#FFB69F" d="M99.5 248.38H56.75v-11.49L9.91 190.04a9.533 9.533 0 0 1-2.81-6.77l-.32-39.08c0-4.82 3.91-8.72 8.73-8.73 4.81 0 8.72 3.91 8.72 8.73l.32 28.33c0 2.028.824 3.924 2.19 5.29l18.17 18.18 9.05 9.05c3.35 3.34 9.06 3.59 12.46.3 3.52-3.4 3.55-9.01.11-12.46l-11.05-11.05c-3.07-3.07-3.25-8.07-.24-11.2 3.09-3.26 8.23-3.28 11.36-.14l23.35 23.33c7.08 7.09 9.46 14.79 9.54 23.64.02.29.01 30.62.01 30.92zM249.22 144.19l-.32 39.08c0 2.55-1.01 4.98-2.81 6.77l-46.84 46.85v11.49H156.5c0-.3-.01-30.63.01-30.92.08-8.85 2.46-16.55 9.54-23.64l23.35-23.33c3.13-3.14 8.27-3.12 11.36.14 3.01 3.13 2.83 8.13-.24 11.2l-11.05 11.05c-3.44 3.45-3.41 9.06.11 12.46 3.4 3.29 9.11 3.04 12.46-.3l10.05-10.05 17.17-17.18a7.492 7.492 0 0 0 2.19-5.29l.32-28.33c0-4.82 3.91-8.73 8.72-8.73 4.82.01 8.73 3.91 8.73 8.73zM86.329 75.202c-7.233 0-13.096-5.863-13.096-13.096V51.178h26.191v10.929c0 7.232-5.863 13.095-13.095 13.095z"/><path fill="#7C7B7A" d="m101.73 34.878-5.65 2.949a10.16 10.16 0 0 1-4.702 1.153H79.276c-4.201 0-7.403 3.76-6.735 7.907l.692 4.292h26.191a14.298 14.298 0 0 0 2.437-16.029l-.131-.272z"/><path fill="#FBE0E2" d="M92.346 243.724a2.5 2.5 0 0 1-2.5-2.5v-4.388a2.5 2.5 0 1 1 5 0v4.388a2.5 2.5 0 0 1-2.5 2.5zm0-14.389a2.5 2.5 0 0 1-2.5-2.5v-8.837c0-7.54-1.948-12.565-6.723-17.346l-23.358-23.34a2.5 2.5 0 1 1 3.533-3.537l23.36 23.342c5.663 5.669 8.188 12.109 8.188 20.881v8.837a2.5 2.5 0 0 1-2.5 2.5zM192.095 243.724a2.5 2.5 0 0 1-2.5-2.5v-7.301c0-.663.264-1.299.732-1.768l48.953-48.953.185-27.034a2.5 2.5 0 0 1 2.5-2.48h.021a2.5 2.5 0 0 1 2.479 2.52l-.217 27.025c0 1.331-.51 2.583-1.435 3.505l-48.219 48.219v6.266a2.499 2.499 0 0 1-2.499 2.501zm49.95-95.036h-.02a2.5 2.5 0 0 1-2.48-2.52l.016-2a2.5 2.5 0 0 1 2.5-2.48h.02a2.5 2.5 0 0 1 2.48 2.52l-.016 2a2.5 2.5 0 0 1-2.5 2.48z"/><path d="M60.62 71.53c-1.146.828-1.353 2.419-.561 3.49.798 1.127 2.396 1.37 3.48.57a2.496 2.496 0 0 0 .58-3.48v-.01c-.779-1.07-2.409-1.34-3.499-.57z"/><path d="M87.87 20.79c-23.258 0-39.638 22.653-32.641 44.64.41 1.28 1.84 2.03 3.141 1.62 1.278-.405 2.06-1.799 1.62-3.14-6.001-18.857 8.23-38.083 27.88-38.12 16.1.03 29.229 13.15 29.25 29.25-.021 16.1-13.15 29.22-29.25 29.25-6.271 0-12.25-1.96-17.301-5.66-1.069-.8-2.71-.54-3.489.53a2.502 2.502 0 0 0 .529 3.5c5.9 4.34 12.91 6.63 20.261 6.63 18.935 0 34.25-15.316 34.25-34.25 0-18.934-15.314-34.25-34.25-34.25z"/><path d="m4.28 144.19.319 39.1c0 3.17 1.29 6.28 3.55 8.52l46.101 46.12v10.45a2.5 2.5 0 0 0 5 0v-11.49c0-.67-.26-1.29-.73-1.77l-46.84-46.85a7.003 7.003 0 0 1-2.08-5l-.319-39.1c0-3.42 2.789-6.2 6.239-6.21 3.42.01 6.2 2.8 6.21 6.23l.32 28.36a9.93 9.93 0 0 0 2.92 7.03l27.22 27.23c4.342 4.321 11.573 4.555 15.971.33 4.455-4.312 4.618-11.543.14-16.02l-11.05-11.06c-2.045-2.044-2.328-5.507-.21-7.69l.02-.02c2.103-2.226 5.603-2.257 7.771-.09l6.5 6.49c.939.94 2.59.94 3.529 0a2.484 2.484 0 0 0 0-3.54l-6.489-6.49c-4.239-4.237-10.979-3.974-14.92.17h-.011c-3.946 4.098-3.776 10.644.271 14.71l11.05 11.05a6.237 6.237 0 0 1-.08 8.89c-2.39 2.325-6.552 2.128-8.95-.27l-8.319-8.322V10.12h130.84v28.84a2.5 2.5 0 0 0 2.5 2.5h28.84V69.2a2.5 2.5 0 0 0 5 0V38.96c0-.685-.324-1.356-.73-1.77L182.52 5.85a2.641 2.641 0 0 0-1.77-.73H44.91a2.503 2.503 0 0 0-2.5 2.5v182.326l-13.9-13.906a5.007 5.007 0 0 1-1.46-3.52l-.32-28.36c-.02-6.17-5.05-11.2-11.22-11.2-6.191.01-11.23 5.05-11.23 11.23zM183.25 13.656c14.669 14.669 9.719 9.718 22.801 22.804H183.25V13.656z"/><path d="M78.399 182.28c-.97.98-.97 2.56 0 3.54a2.51 2.51 0 0 0 3.54 0c.971-.98.971-2.56 0-3.54-.939-.94-2.589-.94-3.54 0zM244.322 188.272l-46.84 46.85a2.498 2.498 0 0 0-.732 1.768v11.49a2.5 2.5 0 1 0 5 0v-10.455l46.103-46.113a11.95 11.95 0 0 0 3.548-8.522l.319-39.101c0-6.179-5.035-11.217-11.229-11.23-6.188 0-11.221 5.038-11.221 11.202l-.319 28.358a5.012 5.012 0 0 1-1.459 3.523l-12.901 12.906V89.2a2.5 2.5 0 0 0-5 0v104.75l-9.32 9.32-.01.013c-2.428 2.402-6.599 2.526-8.942.259-2.519-2.433-2.531-6.434-.08-8.895l11.05-11.05c4.051-4.051 4.174-10.646.287-14.688-4.05-4.274-10.812-4.332-14.94-.188l-23.353 23.332c-6.354 6.362-9.617 13.694-10.178 22.907h-52.197c-.521-9.054-3.753-16.512-10.187-22.91l-2.71-2.7c-.94-.95-2.59-.94-3.53 0a2.5 2.5 0 0 0 0 3.54h.011l2.689 2.7c6.05 6.1 8.68 12.65 8.811 21.89v.05c.014.984.01 21.407.01 30.85a2.5 2.5 0 0 0 5 0c0-28.6.002-27.42-.004-28.42h52.008c-.004 3.306-.007 10.84-.004 28.132v.288a2.5 2.5 0 1 0 5 0v-.289c-.006-41.11.01-27.72.01-30.609.082-9.125 2.799-15.877 8.807-21.894l23.354-23.333c2.215-2.222 5.708-2.083 7.787.108 2.025 2.106 1.933 5.561-.206 7.7l-11.053 11.052c-4.408 4.421-4.405 11.629.143 16.022 4.284 4.145 11.554 4.01 15.915-.283.017-.016.037-.027.053-.043v-.004l27.218-27.228a10.036 10.036 0 0 0 2.923-7.03l.319-28.358c0-3.435 2.791-6.23 6.216-6.23 3.438.007 6.234 2.802 6.234 6.209l-.322 39.1a7 7 0 0 1-2.078 5.002z"/><circle cx="212.09" cy="79.2" r="2.5"/><path d="M86.329 77.702c8.6 0 15.596-6.996 15.596-15.595v-9.998c3.972-4.803 5.219-11.794 2.055-18.322a2.501 2.501 0 0 0-3.407-1.126l-5.648 2.949a7.696 7.696 0 0 1-3.546.87H79.276c-5.741 0-10.116 5.142-9.203 10.805l.66 4.092v10.731c0 8.598 6.996 15.594 15.596 15.594zm10.596-15.595c0 5.842-4.753 10.595-10.596 10.595s-10.596-4.753-10.596-10.595v-8.429h21.191v8.429zM79.276 41.479h12.102c2.031 0 4.058-.497 5.859-1.437l3.167-1.653a11.9 11.9 0 0 1-2.126 10.289H75.362l-.354-2.189a4.325 4.325 0 0 1 4.268-5.01z"/><path d="M86.329 68.218c4.166 0 7.556-3.39 7.556-7.556a2.5 2.5 0 1 0-5 0c0 1.409-1.146 2.556-2.556 2.556s-2.556-1.146-2.556-2.556a2.5 2.5 0 1 0-5 0c0 4.167 3.39 7.556 7.556 7.556zM134.25 63.696h41a2.5 2.5 0 1 0 0-5h-41a2.5 2.5 0 1 0 0 5zM134.25 75.21h63.25a2.5 2.5 0 1 0 0-5h-63.25a2.5 2.5 0 1 0 0 5zM58.016 100.75a2.5 2.5 0 0 0 2.5 2.5h100a2.5 2.5 0 1 0 0-5h-100a2.5 2.5 0 0 0-2.5 2.5zM196.484 98.25h-25.969a2.5 2.5 0 1 0 0 5h25.969a2.5 2.5 0 1 0 0-5zM196.484 111.813h-95.969a2.5 2.5 0 1 0 0 5h95.969a2.5 2.5 0 1 0 0-5zM60.516 116.813h30a2.5 2.5 0 1 0 0-5h-30a2.5 2.5 0 1 0 0 5zM143.016 127.875a2.5 2.5 0 0 0-2.5-2.5h-80a2.5 2.5 0 1 0 0 5h80a2.5 2.5 0 0 0 2.5-2.5zM196.484 125.375h-45.969a2.5 2.5 0 1 0 0 5h45.969a2.5 2.5 0 1 0 0-5zM60.516 138.938a2.5 2.5 0 1 0 0 5h50a2.5 2.5 0 1 0 0-5h-50zM196.484 138.938h-75.969a2.5 2.5 0 1 0 0 5h75.969a2.5 2.5 0 1 0 0-5zM196.484 152.5h-29.969a2.5 2.5 0 1 0 0 5h29.969a2.5 2.5 0 1 0 0-5zM159.016 155a2.5 2.5 0 0 0-2.5-2.5h-96a2.5 2.5 0 1 0 0 5h96a2.5 2.5 0 0 0 2.5-2.5z"/></svg>